<?xml version="1.0" encoding="UTF-8" standalone="no"?>
<!-- Created with Inkscape (http://www.inkscape.org/) -->

<svg
   width="51.652172mm"
   height="51.652172mm"
   viewBox="0 0 51.652172 51.652172"
   version="1.1"
   id="svg1"
   xml:space="preserve"
   inkscape:version="1.3 (0e150ed6c4, 2023-07-21)"
   sodipodi:docname="favicon.svg"
   xmlns:inkscape="http://www.inkscape.org/namespaces/inkscape"
   xmlns:sodipodi="http://sodipodi.sourceforge.net/DTD/sodipodi-0.dtd"
   xmlns="http://www.w3.org/2000/svg"
   xmlns:svg="http://www.w3.org/2000/svg"><sodipodi:namedview
     id="namedview1"
     pagecolor="#ffffff"
     bordercolor="#000000"
     borderopacity="0.25"
     inkscape:showpageshadow="2"
     inkscape:pageopacity="0.0"
     inkscape:pagecheckerboard="0"
     inkscape:deskcolor="#d1d1d1"
     inkscape:document-units="mm"
     inkscape:zoom="2.9556229"
     inkscape:cx="118.41835"
     inkscape:cy="119.2642"
     inkscape:window-width="2560"
     inkscape:window-height="1369"
     inkscape:window-x="2552"
     inkscape:window-y="-8"
     inkscape:window-maximized="1"
     inkscape:current-layer="layer1" /><defs
     id="defs1" /><g
     inkscape:label="Layer 1"
     inkscape:groupmode="layer"
     id="layer1"
     transform="translate(-48.107418,-72.414322)"><rect
       style="fill:#4caf50;fill-opacity:1;stroke-width:0.264583"
       id="rect1"
       width="51.652172"
       height="51.652172"
       x="48.107418"
       y="72.414322"
       ry="25.826086"
       rx="12.406651" /><path
       style="display:inline;fill:#ffffff;stroke-width:0.818769"
       d="m 64.255659,117.33619 c -3.507625,-0.77942 -5.326658,-4.60035 -3.763519,-7.9054 0.176542,-0.37327 1.596636,-2.5607 3.946946,-6.07965 3.671188,-5.49661 3.671188,-5.49661 3.671188,-13.555931 0,-8.059327 0,-8.059327 -0.825988,-8.060751 -1.920261,-0.0033 -2.69846,-1.865991 -1.085679,-2.598661 0.403156,-0.18315 14.498143,-0.18315 14.9013,0 1.609913,0.731367 0.831168,2.59536 -1.085679,2.598661 -0.825988,0.0014 -0.825988,0.0014 -0.825988,8.064066 0,8.062636 0,8.062636 3.712795,13.620896 3.875194,5.80138 4.043099,6.07799 4.297856,7.0803 0.731668,2.87867 -0.795207,5.70342 -3.615057,6.68794 -0.673561,0.23516 -18.327745,0.37083 -19.328175,0.14853 z m 3.09549,-4.13806 c 0.500916,-0.2097 0.880682,-0.89212 0.794923,-1.42843 -0.250677,-1.56765 -2.564347,-1.49978 -2.678515,0.0787 -0.07316,1.01154 0.946392,1.74221 1.883592,1.34986 z m 2.593842,-4.06353 c 0.548423,-0.1523 0.950969,-0.70939 0.950969,-1.31607 0,-1.40402 -1.896974,-1.84439 -2.543116,-0.59037 -0.535419,1.03913 0.453065,2.22274 1.592147,1.90644 z m 2.82969,-6.58325 c 0.302862,-0.11068 0.756525,-0.28818 1.008141,-0.39444 1.372272,-0.57955 3.150502,-0.6935 4.618785,-0.29598 0.122646,0.0331 -0.04155,-0.24964 -0.833647,-1.43608 -0.542505,-0.81258 -1.026656,-1.57383 -1.07589,-1.69166 -0.07461,-0.17855 -0.08951,-1.61225 -0.08951,-8.605774 0,-8.391534 0.01059,-8.391534 0.01059,-8.391534 l -5.508718,-0.0029 c 0,0 -0.0085,4.198669 -0.0085,8.394436 0,6.890894 -0.01561,8.428804 -0.0873,8.599994 -0.04801,0.11466 -0.531286,0.87394 -1.073937,1.68729 -1.102438,1.65239 -1.0761,1.55714 -0.513847,1.85841 1.077221,0.57722 2.443123,0.68416 3.553802,0.27824 z"
       id="path2"
       sodipodi:nodetypes="cssscsscssssccsscccsscsccsssccssscss" /></g></svg>
